<svg xmlns="http://www.w3.org/2000/svg" width="860" height="614" viewBox="0 0 860 614" style="background:white;font-family:Arial,Helvetica,sans-serif;">
<defs>
  <marker id="arr-block" markerWidth="10" markerHeight="7"
          refX="9" refY="3.5" orient="auto">
    <polygon points="0 0,10 3.5,0 7" fill="#000000"/>
  </marker>
  <marker id="arr-open" markerWidth="12" markerHeight="8"
          refX="10" refY="4" orient="auto">
    <polyline points="0 1,10 4,0 7" fill="none" stroke="#000000" stroke-width="1.2"/>
  </marker>
  <marker id="arr-open-dash" markerWidth="12" markerHeight="8"
          refX="10" refY="4" orient="auto">
    <polyline points="0 1,10 4,0 7" fill="none" stroke="#000000" stroke-width="1.2"/>
  </marker>
</defs>
<rect width="860" height="614" fill="white"/>
<rect x="20" y="14" width="540" height="144" fill="none" stroke="#999" stroke-dasharray="6,3" stroke-width="1.5" rx="4"/>
<text x="28" y="28" font-size="12" font-weight="bold" fill="#666">输入</text>
<rect x="110" y="158" width="710" height="272" fill="none" stroke="#999" stroke-dasharray="6,3" stroke-width="1.5" rx="4"/>
<text x="118" y="172" font-size="12" font-weight="bold" fill="#666">核心处理</text>
<rect x="20" y="438" width="800" height="136" fill="none" stroke="#999" stroke-dasharray="6,3" stroke-width="1.5" rx="4"/>
<text x="28" y="452" font-size="12" font-weight="bold" fill="#666">产物输出</text>
<line x1="290.0" y1="240.0" x2="290.0" y2="292.0" stroke="#555" stroke-width="1.5"  marker-end="url(#arr-block)"/>
<rect x="260.0" y="257.0" width="60" height="14" fill="white" opacity="0.8"/>
<text x="290.0" y="266.0" text-anchor="middle" font-size="10" fill="#333">调用</text>
<path d="M158.1,138.0 L95.0,160.0 L95.0,330.0 L130.0,329.6" fill="none" stroke="#555" stroke-width="1.5"  marker-end="url(#arr-block)"/>
<rect x="65.0" y="321.0" width="60" height="14" fill="white" opacity="0.8"/>
<text x="95.0" y="330.0" text-anchor="middle" font-size="10" fill="#333">读取各 map 目录</text>
<line x1="450.0" y1="328.8" x2="560.0" y2="329.4" stroke="#555" stroke-width="1.5"  marker-end="url(#arr-block)"/>
<rect x="475.0" y="320.1" width="60" height="14" fill="white" opacity="0.8"/>
<text x="505.0" y="329.1" text-anchor="middle" font-size="10" fill="#333">使用</text>
<path d="M250.0,364.0 L160.0,445.0 L160.0,470.0" fill="none" stroke="#555" stroke-width="1.5"  marker-end="url(#arr-block)"/>
<rect x="130.0" y="436.0" width="60" height="14" fill="white" opacity="0.8"/>
<text x="160.0" y="445.0" text-anchor="middle" font-size="10" fill="#333">写入</text>
<path d="M330.0,364.0 L420.0,445.0 L420.0,470.0" fill="none" stroke="#555" stroke-width="1.5"  marker-end="url(#arr-block)"/>
<rect x="390.0" y="436.0" width="60" height="14" fill="white" opacity="0.8"/>
<text x="420.0" y="445.0" text-anchor="middle" font-size="10" fill="#333">写入（可选）</text>
<path d="M290.0,364.0 L290.0,445.0 L680.0,445.0 L680.0,470.0" fill="none" stroke="#555" stroke-width="1.5"  marker-end="url(#arr-block)"/>
<rect x="650.0" y="436.0" width="60" height="14" fill="white" opacity="0.8"/>
<text x="680.0" y="445.0" text-anchor="middle" font-size="10" fill="#333">写入（可选）</text>
<rect x="52" y="34" width="500" height="92" fill="#b2bece" stroke="#6c8ebf" stroke-width="1.5" rx="4"/>
<rect x="46" y="40" width="500" height="92" fill="#c4d0e2" stroke="#6c8ebf" stroke-width="1.5" rx="4"/>
<rect x="40" y="46" width="500" height="92" fill="#dae8fc" stroke="#6c8ebf" stroke-width="1.5" rx="4"/>
<text x="290.0" y="61.0" text-anchor="middle" font-family="Arial,Helvetica,sans-serif" font-size="11" font-weight="bold" fill="#000000">源树 map 目录</text>
<text x="290.0" y="76.0" text-anchor="middle" font-family="Arial,Helvetica,sans-serif" font-size="9" fill="#666666">可多个：build/release、vendor/…、device/…</text>
<rect x="48" y="86" width="120" height="34" fill="#dae8fc" stroke="#6c8ebf" stroke-width="1.5" rx="4"/>
<text x="108.0" y="106.5" text-anchor="middle" font-family="Arial,Helvetica,sans-serif" font-size="11" font-weight="normal" fill="#000000">flag_declarations/</text>
<rect x="172" y="86" width="112" height="34" fill="#dae8fc" stroke="#6c8ebf" stroke-width="1.5" rx="4"/>
<text x="228.0" y="106.5" text-anchor="middle" font-family="Arial,Helvetica,sans-serif" font-size="11" font-weight="normal" fill="#000000">release_configs/</text>
<rect x="292" y="86" width="86" height="34" fill="#dae8fc" stroke="#6c8ebf" stroke-width="1.5" rx="4"/>
<text x="335.0" y="106.5" text-anchor="middle" font-family="Arial,Helvetica,sans-serif" font-size="11" font-weight="normal" fill="#000000">flag_values/</text>
<rect x="386" y="86" width="146" height="34" fill="#dae8fc" stroke="#6c8ebf" stroke-width="1.5" rx="4"/>
<text x="459.0" y="106.5" text-anchor="middle" font-family="Arial,Helvetica,sans-serif" font-size="11" font-weight="normal" fill="#000000">release_config_map.textproto</text>
<rect x="170" y="190" width="240" height="50" fill="#d5e8d4" stroke="#82b366" stroke-width="1.5" rx="4"/>
<text x="290.0" y="213.0" text-anchor="middle" font-family="Arial,Helvetica,sans-serif" font-size="11" fill="#000000">release-config-internal</text>
<text x="290.0" y="228.0" text-anchor="middle" font-family="Arial,Helvetica,sans-serif" font-size="9" fill="#666666">release_config/main.go</text>
<rect x="130" y="292" width="320" height="72" fill="#d5e8d4" stroke="#82b366" stroke-width="1.5" rx="4"/>
<text x="290.0" y="307.0" text-anchor="middle" font-family="Arial,Helvetica,sans-serif" font-size="11" font-weight="normal" fill="#000000">release_config_lib</text>
<rect x="138" y="322" width="96" height="34" fill="#d5e8d4" stroke="#82b366" stroke-width="1.5" rx="4"/>
<text x="186.0" y="342.5" text-anchor="middle" font-family="Arial,Helvetica,sans-serif" font-size="11" font-weight="normal" fill="#000000">并发加载</text>
<rect x="240" y="322" width="96" height="34" fill="#d5e8d4" stroke="#82b366" stroke-width="1.5" rx="4"/>
<text x="288.0" y="342.5" text-anchor="middle" font-family="Arial,Helvetica,sans-serif" font-size="11" font-weight="normal" fill="#000000">继承解析</text>
<rect x="342" y="322" width="96" height="34" fill="#d5e8d4" stroke="#82b366" stroke-width="1.5" rx="4"/>
<text x="390.0" y="342.5" text-anchor="middle" font-family="Arial,Helvetica,sans-serif" font-size="11" font-weight="normal" fill="#000000">产物生成</text>
<rect x="560" y="250" width="240" height="160" fill="#e1d5e7" stroke="#9673a6" stroke-width="1.5" rx="4"/>
<text x="680.0" y="265.0" text-anchor="middle" font-family="Arial,Helvetica,sans-serif" font-size="11" font-weight="bold" fill="#000000">release_config_proto</text>
<text x="680.0" y="280.0" text-anchor="middle" font-family="Arial,Helvetica,sans-serif" font-size="9" fill="#666666">proto 数据定义层</text>
<rect x="572" y="296" width="216" height="30" fill="#e1d5e7" stroke="#9673a6" stroke-width="1.5" rx="4"/>
<text x="680.0" y="314.5" text-anchor="middle" font-family="Arial,Helvetica,sans-serif" font-size="11" font-weight="normal" fill="#000000">build_flags_common.proto</text>
<rect x="572" y="332" width="216" height="30" fill="#e1d5e7" stroke="#9673a6" stroke-width="1.5" rx="4"/>
<text x="680.0" y="350.5" text-anchor="middle" font-family="Arial,Helvetica,sans-serif" font-size="11" font-weight="normal" fill="#000000">build_flags_src.proto</text>
<rect x="572" y="368" width="216" height="30" fill="#e1d5e7" stroke="#9673a6" stroke-width="1.5" rx="4"/>
<text x="680.0" y="386.5" text-anchor="middle" font-family="Arial,Helvetica,sans-serif" font-size="11" font-weight="normal" fill="#000000">build_flags_out.proto</text>
<rect x="40" y="470" width="240" height="84" fill="#ffe6cc" stroke="#d79b00" stroke-width="1.5" rx="4"/>
<text x="160.0" y="510.0" text-anchor="middle" font-family="Arial,Helvetica,sans-serif" font-size="11" fill="#000000">release_config-&lt;product&gt;.varmk</text>
<text x="160.0" y="525.0" text-anchor="middle" font-family="Arial,Helvetica,sans-serif" font-size="9" fill="#666666">RELEASE_* make 变量</text>
<rect x="300" y="470" width="240" height="84" fill="#ffe6cc" stroke="#d79b00" stroke-width="1.5" rx="4"/>
<text x="420.0" y="485.0" text-anchor="middle" font-family="Arial,Helvetica,sans-serif" font-size="11" font-weight="normal" fill="#000000">all_release_configs-&lt;product&gt;</text>
<rect x="316" y="514" width="62" height="30" fill="#ffe6cc" stroke="#d79b00" stroke-width="1.5" rx="4"/>
<text x="347.0" y="532.5" text-anchor="middle" font-family="Arial,Helvetica,sans-serif" font-size="11" font-weight="normal" fill="#000000">.pb</text>
<rect x="388" y="514" width="66" height="30" fill="#ffe6cc" stroke="#d79b00" stroke-width="1.5" rx="4"/>
<text x="421.0" y="532.5" text-anchor="middle" font-family="Arial,Helvetica,sans-serif" font-size="11" font-weight="normal" fill="#000000">.json</text>
<rect x="464" y="514" width="68" height="30" fill="#ffe6cc" stroke="#d79b00" stroke-width="1.5" rx="4"/>
<text x="498.0" y="532.5" text-anchor="middle" font-family="Arial,Helvetica,sans-serif" font-size="11" font-weight="normal" fill="#000000">.textproto</text>
<rect x="560" y="470" width="240" height="84" fill="#ffe6cc" stroke="#d79b00" stroke-width="1.5" rx="4"/>
<text x="680.0" y="510.0" text-anchor="middle" font-family="Arial,Helvetica,sans-serif" font-size="11" fill="#000000">inheritance_graph-&lt;product&gt;.dot</text>
<text x="680.0" y="525.0" text-anchor="middle" font-family="Arial,Helvetica,sans-serif" font-size="9" fill="#666666">继承关系图</text>
</svg>